<svg width="12px" height="12px" viewBox="0 -2 24 30" role="img" xmlns="http://www.w3.org/2000/svg">
    <title>Codeforces icon</title>
    <path d="M4.5 7.5C5.328 7.5 6 8.172 6 9v10.5c0 .828-.672 1.5-1.5 1.5h-3C.673 21 0 20.328 0 19.5V9c0-.828.673-1.5 1.5-1.5h3z" fill="#f9b233"/>
    <path d="M13.5 3c.828 0 1.5.672 1.5 1.5v15c0 .828-.672 1.5-1.5 1.5h-3c-.827 0-1.5-.672-1.5-1.5v-15C9 3.672 9.673 3 10.5 3h3z" fill="#1f8acb"/>
    <path d="M22.5 10.5c.828 0 1.5.672 1.5 1.5v7.5c0 .828-.672 1.5-1.5 1.5h-3c-.828 0-1.5-.672-1.5-1.5V12c0-.828.672-1.5 1.5-1.5h3z" fill="#e64c3c"/>
</svg>
