<svg width="270.557" height="98.732" viewBox="0 0 270.557 98.732" xmlns="http://www.w3.org/2000/svg">
	<g id="svgGroup" stroke-linecap="round" fill-rule="evenodd" font-size="9pt" stroke="#000" stroke-width="0.25mm" fill="none" style="stroke:#000;stroke-width:0.25mm;fill:none">
		<path d="M 49.073 47.022 L 49.659 45.777 L 50.977 42.7 L 51.783 40.869 Q 51.929 40.283 53.687 36.182 Q 55.033 33.042 57.066 28.227 A 3458.729 3458.729 0 0 0 58.375 25.122 Q 60.238 20.691 61.651 17.177 A 315.128 315.128 0 0 0 62.842 14.173 A 1018.499 1018.499 0 0 0 63.256 13.112 Q 64.609 9.632 64.674 9.375 A 17.111 17.111 0 0 1 68.116 2.857 A 7.92 7.92 0 0 1 73.819 0.03 A 11.081 11.081 0 0 1 74.634 0 A 10.561 10.561 0 0 1 76.664 0.185 Q 77.903 0.427 78.891 0.99 A 6.344 6.344 0 0 1 79.249 1.209 Q 80.645 2.131 80.977 4.352 A 10.249 10.249 0 0 1 81.08 5.86 A 13.606 13.606 0 0 1 80.719 8.897 A 18.561 18.561 0 0 1 79.908 11.499 A 536.825 536.825 0 0 0 78.939 14.001 Q 78.498 15.146 78.11 16.174 A 310.384 310.384 0 0 0 77.857 16.846 A 730.883 730.883 0 0 0 74.204 24.262 A 968.118 968.118 0 0 0 70.277 32.446 A 862.619 862.619 0 0 0 62.183 50.025 A 1512.66 1512.66 0 0 0 56.388 63.146 A 1327.975 1327.975 0 0 0 54.566 67.346 Q 51.482 74.49 49.101 80.201 A 737.263 737.263 0 0 0 48.341 82.031 Q 48.267 82.105 48.267 82.398 A 1.821 1.821 0 0 1 48.264 82.513 Q 48.253 82.683 48.207 82.748 A 0.121 0.121 0 0 1 48.194 82.764 A 5.879 5.879 0 0 0 48.426 84.368 A 7.788 7.788 0 0 0 48.853 85.51 Q 49.512 86.939 50.977 86.939 A 2.764 2.764 0 0 0 51.853 86.793 A 3.449 3.449 0 0 0 51.856 86.792 Q 57.276 85.181 62.989 81.153 Q 68.702 77.124 73.572 72.473 A 144.848 144.848 0 0 0 76.92 69.178 Q 78.47 67.598 79.749 66.177 A 65.087 65.087 0 0 0 81.373 64.307 A 4.293 4.293 0 0 1 82.035 63.65 Q 82.787 63.062 83.643 63.062 A 2.253 2.253 0 0 1 85.09 63.591 A 3.425 3.425 0 0 1 85.584 64.087 A 3.493 3.493 0 0 1 86.241 65.383 Q 86.426 66.046 86.426 66.87 A 6.303 6.303 0 0 1 86.309 68.036 Q 86.126 69.006 85.657 70.166 A 12.775 12.775 0 0 1 84.833 71.825 Q 84.147 72.997 83.131 74.268 A 176.077 176.077 0 0 1 71.265 86.17 A 76.688 76.688 0 0 1 64.536 91.663 A 59.976 59.976 0 0 1 58.961 95.252 A 29.131 29.131 0 0 1 53.633 97.63 A 21.55 21.55 0 0 1 46.949 98.731 A 15.165 15.165 0 0 1 43.435 98.347 A 10.177 10.177 0 0 1 38.526 95.691 A 9.546 9.546 0 0 1 36.195 91.82 Q 35.694 90.305 35.53 88.457 A 21.292 21.292 0 0 1 35.45 86.572 L 35.45 85.767 Q 35.45 85.372 35.493 85.151 A 0.952 0.952 0 0 1 35.523 85.034 A 24.826 24.826 0 0 1 27.848 93.414 A 30.848 30.848 0 0 1 25.452 94.922 A 31.677 31.677 0 0 1 19.651 97.526 A 23.326 23.326 0 0 1 12.379 98.731 A 15.457 15.457 0 0 1 8.193 98.19 A 12.017 12.017 0 0 1 3.516 95.691 A 9.036 9.036 0 0 1 1.022 92.025 Q 0.001 89.377 0.001 85.547 A 36.319 36.319 0 0 1 4.029 68.701 A 47.11 47.11 0 0 1 12.613 56.817 A 44.279 44.279 0 0 1 14.21 55.298 A 51.151 51.151 0 0 1 22.488 49.08 A 44.033 44.033 0 0 1 27.064 46.692 A 41.574 41.574 0 0 1 31.895 44.855 Q 35.823 43.653 39.185 43.653 A 22.18 22.18 0 0 1 42.22 43.848 Q 44.578 44.174 46.363 45.044 Q 47.974 45.923 49.073 47.022 Z M 43.726 58.814 L 44.752 56.543 L 46.143 53.394 A 24.52 24.52 0 0 0 41.115 54.028 A 32.961 32.961 0 0 0 36.915 55.298 A 33.086 33.086 0 0 0 23.423 64.054 A 39.588 39.588 0 0 0 22.23 65.369 A 28.326 28.326 0 0 0 15.445 81.253 A 35.419 35.419 0 0 0 15.308 82.837 A 5.025 5.025 0 0 0 15.417 83.934 Q 15.829 85.767 17.799 85.767 A 14.702 14.702 0 0 0 25.344 83.655 A 18.158 18.158 0 0 0 26.295 83.057 A 31.45 31.45 0 0 0 31.745 78.367 A 37.611 37.611 0 0 0 33.692 76.099 A 62.769 62.769 0 0 0 39.588 67.237 A 113.683 113.683 0 0 0 41.756 63.088 Q 42.731 61.118 43.508 59.323 A 66.355 66.355 0 0 0 43.726 58.814 Z" id="0" vector-effect="non-scaling-stroke"/>
		<path d="M 120.118 48.779 L 122.681 47.534 A 21.611 21.611 0 0 1 124.988 46.619 Q 125.858 46.329 126.557 46.248 A 4.498 4.498 0 0 1 127.076 46.216 A 8.238 8.238 0 0 1 129.094 46.451 A 5.995 5.995 0 0 1 131.617 47.754 Q 133.375 49.292 133.375 51.123 Q 133.375 51.694 133.305 51.917 A 0.612 0.612 0 0 1 133.301 51.929 A 26.778 26.778 0 0 1 132.992 53.05 Q 132.62 54.306 132.023 55.971 A 102.056 102.056 0 0 1 131.434 57.569 A 303.503 303.503 0 0 0 130.033 61.359 A 405.598 405.598 0 0 0 128.541 65.552 Q 127.003 69.8 125.941 73.755 Q 124.879 77.71 124.879 80.274 Q 124.879 81.996 125.329 83.246 A 5.552 5.552 0 0 0 125.611 83.899 A 2.562 2.562 0 0 0 126.466 84.887 Q 126.95 85.21 127.605 85.296 A 3.817 3.817 0 0 0 128.101 85.327 A 5.114 5.114 0 0 0 129.491 85.111 Q 130.834 84.729 132.579 83.672 A 26.77 26.77 0 0 0 133.814 82.874 A 68.457 68.457 0 0 0 137.921 79.824 A 86.587 86.587 0 0 0 141.212 77.051 A 174.043 174.043 0 0 0 143.299 75.156 A 201.434 201.434 0 0 0 145.46 73.133 A 147.605 147.605 0 0 0 148.797 69.857 A 164.815 164.815 0 0 0 149.927 68.701 A 5.325 5.325 0 0 1 150.689 68.179 Q 151.146 67.924 151.593 67.82 A 2.667 2.667 0 0 1 152.198 67.749 A 2.705 2.705 0 0 1 154.179 68.604 A 4.225 4.225 0 0 1 154.652 69.177 Q 155.64 70.606 155.64 72.363 A 4.976 4.976 0 0 1 155.281 74.276 A 4.663 4.663 0 0 1 154.249 75.806 Q 151.319 78.516 148.243 81.592 A 73.708 73.708 0 0 1 146.091 83.65 Q 143.557 85.987 139.986 88.939 A 233.775 233.775 0 0 1 139.747 89.136 A 66.674 66.674 0 0 1 131.063 95.188 A 60.859 60.859 0 0 1 129.786 95.911 A 28.361 28.361 0 0 1 126.382 97.516 Q 123.249 98.731 120.557 98.731 A 10.294 10.294 0 0 1 117.492 98.301 A 7.597 7.597 0 0 1 113.087 94.739 A 16.575 16.575 0 0 1 110.743 86.206 A 19.504 19.504 0 0 1 110.966 83.185 A 14.653 14.653 0 0 1 111.695 80.347 A 80.093 80.093 0 0 1 107.969 84.96 A 102.703 102.703 0 0 1 104.591 88.66 A 44.133 44.133 0 0 1 96.908 95.093 A 40.765 40.765 0 0 1 95.728 95.838 A 20.362 20.362 0 0 1 90.608 98.095 A 17.175 17.175 0 0 1 85.987 98.731 A 11.134 11.134 0 0 1 83.985 98.535 Q 82.206 98.209 80.054 97.339 A 14.361 14.361 0 0 1 75.19 94.047 A 17.75 17.75 0 0 1 74.012 92.725 A 11.124 11.124 0 0 1 71.946 88.543 Q 71.512 86.914 71.431 84.987 A 21.463 21.463 0 0 1 71.412 84.082 Q 71.412 81.031 72.338 76.955 A 63.485 63.485 0 0 1 73.463 72.73 A 48.188 48.188 0 0 1 77.739 62.844 A 57.364 57.364 0 0 1 79.908 59.326 A 38.135 38.135 0 0 1 91.151 48.12 Q 97.999 43.653 107.007 43.653 A 21.892 21.892 0 0 1 109.673 43.807 Q 111.288 44.005 112.647 44.458 Q 114.72 45.149 116.253 45.947 A 16.335 16.335 0 0 1 116.749 46.216 A 25.826 25.826 0 0 1 118.331 47.269 A 23.43 23.43 0 0 1 118.543 47.425 Q 119.385 48.047 120.118 48.779 Z M 96.692 83.68 A 24.791 24.791 0 0 0 97.742 82.837 A 50.882 50.882 0 0 0 102.506 78.223 A 60.414 60.414 0 0 0 104.591 75.806 Q 107.573 72.227 109.535 69.182 A 41.98 41.98 0 0 0 110.377 67.822 A 44.122 44.122 0 0 0 111.098 66.559 Q 112.193 64.561 112.433 63.506 A 2.375 2.375 0 0 0 112.501 62.988 A 4.288 4.288 0 0 0 110.977 59.698 Q 110.372 59.151 109.525 58.688 A 10.179 10.179 0 0 0 109.278 58.557 A 18.536 18.536 0 0 0 107.14 57.619 Q 105.973 57.198 104.906 57.026 A 8.925 8.925 0 0 0 103.492 56.909 A 14.075 14.075 0 0 0 96.168 58.995 A 17.817 17.817 0 0 0 94.886 59.839 A 22.901 22.901 0 0 0 88.257 67.346 A 19.819 19.819 0 0 0 85.944 73.796 A 18.42 18.42 0 0 0 85.694 76.831 Q 85.694 79.688 86.756 82.764 A 4.188 4.188 0 0 0 89.618 85.54 Q 90.436 85.793 91.46 85.833 A 9.997 9.997 0 0 0 91.846 85.84 Q 93.834 85.84 96.692 83.68 Z" id="1" vector-effect="non-scaling-stroke"/>
		<path d="M 149.313 97.086 A 29.412 29.412 0 0 0 159.229 98.731 A 40.198 40.198 0 0 0 172.23 96.607 A 31.655 31.655 0 0 0 176.275 94.926 A 24.717 24.717 0 0 0 182.557 90.491 A 15.987 15.987 0 0 0 182.714 90.334 A 12.983 12.983 0 0 0 186.622 80.86 Q 186.622 76.642 184.569 72.292 A 31.136 31.136 0 0 0 181.495 67.2 A 35.789 35.789 0 0 0 176.112 61.365 A 43.187 43.187 0 0 0 167.652 55.664 A 58.155 58.155 0 0 0 171.607 52.258 A 8.954 8.954 0 0 0 171.739 52.131 Q 172.367 51.515 172.772 50.869 A 4.555 4.555 0 0 0 173.511 48.413 Q 173.511 47.26 172.337 46.086 A 8.7 8.7 0 0 0 171.424 45.3 A 7.572 7.572 0 0 0 168.458 43.966 A 10.841 10.841 0 0 0 166.114 43.726 Q 161.719 43.726 158.057 46.729 A 41.393 41.393 0 0 0 155.009 49.48 A 31.153 31.153 0 0 0 152.051 52.881 A 1.61 1.61 0 0 0 151.89 53.107 Q 151.732 53.372 151.664 53.712 A 2.853 2.853 0 0 0 151.612 54.273 A 3.406 3.406 0 0 0 151.844 55.497 A 4.453 4.453 0 0 0 152.344 56.433 A 16.446 16.446 0 0 0 152.523 56.688 Q 152.962 57.299 153.251 57.566 A 1.215 1.215 0 0 0 153.443 57.715 A 134.116 134.116 0 0 1 162.195 63.611 A 37.559 37.559 0 0 1 164.063 65.068 A 31.957 31.957 0 0 1 169.446 70.752 A 14.983 14.983 0 0 1 172.34 79.834 Q 172.34 84.009 168.787 85.84 A 15.883 15.883 0 0 1 164.672 87.269 A 20.918 20.918 0 0 1 160.474 87.671 A 20.039 20.039 0 0 1 156.388 87.242 A 24.439 24.439 0 0 1 151.356 85.584 Q 149.248 84.638 147.705 83.414 A 11.228 11.228 0 0 1 144.8 80.054 A 3.225 3.225 0 0 0 144.647 79.78 A 2.341 2.341 0 0 0 143.299 78.736 A 9.055 9.055 0 0 0 143.164 78.697 Q 142.728 78.575 142.328 78.511 A 5.262 5.262 0 0 0 141.505 78.443 A 3.836 3.836 0 0 0 139.507 79.004 A 5.324 5.324 0 0 0 138.428 79.871 Q 137.037 81.299 137.037 83.277 Q 137.037 83.496 137.183 84.229 Q 138.941 91.773 145.24 95.252 A 27.334 27.334 0 0 0 149.313 97.086 Z" id="2" vector-effect="non-scaling-stroke"/>
		<path d="M 182.374 95.069 L 182.374 94.483 L 182.447 93.823 A 9.999 9.999 0 0 1 182.684 92.495 Q 183.207 90.299 184.784 86.467 A 100.992 100.992 0 0 1 184.937 86.096 A 251.454 251.454 0 0 1 187.372 80.448 A 315.798 315.798 0 0 1 190.137 74.414 A 1168.537 1168.537 0 0 1 193.314 67.621 A 884.496 884.496 0 0 1 196.253 61.45 A 2867.803 2867.803 0 0 1 197.592 58.672 Q 198.9 55.962 199.905 53.895 A 869.473 869.473 0 0 1 200.758 52.149 L 223.902 4.907 A 5.801 5.801 0 0 1 224.829 3.509 Q 225.321 2.947 225.998 2.405 A 13.683 13.683 0 0 1 227.161 1.575 A 9.903 9.903 0 0 1 230.247 0.24 A 9.028 9.028 0 0 1 232.325 0 Q 235.052 0 236.4 0.852 A 3.08 3.08 0 0 1 236.903 1.245 A 4.163 4.163 0 0 1 237.939 2.808 A 4.161 4.161 0 0 1 238.184 4.248 A 7.553 7.553 0 0 1 237.913 6.213 A 9.957 9.957 0 0 1 237.415 7.617 Q 236.646 9.375 235.621 10.913 A 280.882 280.882 0 0 0 226.392 28.759 A 321.15 321.15 0 0 0 223.463 35.12 A 277.506 277.506 0 0 1 213.577 55.087 A 246.76 246.76 0 0 1 211.158 59.4 Q 214.893 55.591 219.141 51.966 A 42.194 42.194 0 0 1 228.26 45.996 A 23.437 23.437 0 0 1 238.55 43.653 Q 241.92 43.653 245.216 44.678 A 13.53 13.53 0 0 1 248.824 46.39 A 11.992 11.992 0 0 1 250.709 47.974 A 7.616 7.616 0 0 1 252.691 51.823 A 11.029 11.029 0 0 1 252.906 54.053 A 17.995 17.995 0 0 1 251.525 61.152 A 17.185 17.185 0 0 1 249.28 64.966 A 33.134 33.134 0 0 1 241.697 72.049 A 38.394 38.394 0 0 1 240.198 73.023 A 73.096 73.096 0 0 1 231.65 77.572 A 65.016 65.016 0 0 1 229.249 78.589 Q 227.271 79.395 225.88 81.116 Q 224.739 82.526 224.533 83.568 A 2.275 2.275 0 0 0 224.488 84.009 A 2.57 2.57 0 0 0 224.634 84.913 Q 225.058 86.044 226.71 86.127 A 5.372 5.372 0 0 0 226.978 86.133 A 16.095 16.095 0 0 0 230.145 85.78 Q 234.607 84.876 241.187 81.665 Q 245.728 79.468 251.624 76.026 A 668.693 668.693 0 0 0 257.127 72.775 Q 260.885 70.532 265.211 67.896 A 5.151 5.151 0 0 1 266.273 67.382 A 3.942 3.942 0 0 1 267.554 67.163 Q 270.28 67.163 270.532 70.242 A 8.083 8.083 0 0 1 270.557 70.899 A 6.785 6.785 0 0 1 270.31 72.656 Q 270.094 73.457 269.693 74.327 A 15.149 15.149 0 0 1 269.056 75.55 Q 267.849 77.64 265.34 79.565 A 24.107 24.107 0 0 1 264.039 80.493 A 5646.416 5646.416 0 0 0 252.295 87.639 A 6236.123 6236.123 0 0 0 250.562 88.696 A 90.06 90.06 0 0 1 236.133 95.838 Q 228.663 98.731 220.606 98.731 A 17.465 17.465 0 0 1 216.681 98.33 Q 211.301 97.084 210.391 91.967 A 12.827 12.827 0 0 1 210.206 89.722 A 19.126 19.126 0 0 1 210.709 85.245 A 15.424 15.424 0 0 1 212.22 81.336 Q 214.234 77.71 217.164 75 A 39.781 39.781 0 0 1 220.148 72.418 A 29.727 29.727 0 0 1 223.096 70.386 A 111.603 111.603 0 0 0 227.28 67.753 A 96.763 96.763 0 0 0 228.59 66.87 A 31.981 31.981 0 0 0 232.15 64.49 A 24.764 24.764 0 0 0 234.742 62.183 Q 236.393 60.483 236.95 58.815 A 5.303 5.303 0 0 0 237.232 57.129 A 3.3 3.3 0 0 0 237.139 56.308 Q 236.868 55.254 235.803 55.053 A 2.95 2.95 0 0 0 235.255 55.005 A 11.311 11.311 0 0 0 230.811 56.062 Q 224.325 58.87 214.747 69.141 A 152.869 152.869 0 0 0 210.457 73.925 Q 208.392 76.334 206.678 78.569 A 81.314 81.314 0 0 0 204.749 81.189 A 341.204 341.204 0 0 1 197.656 90.878 A 374.492 374.492 0 0 1 196.583 92.285 A 34.719 34.719 0 0 1 193.889 95.029 Q 190.93 97.7 188.343 98.444 A 7.01 7.01 0 0 1 186.402 98.731 Q 184.278 98.731 183.326 97.962 Q 182.436 97.243 182.378 95.342 A 8.895 8.895 0 0 1 182.374 95.069 Z" id="3" vector-effect="non-scaling-stroke"/>
	</g>
    <style>@keyframes grow{0%{stroke-dashoffset:1px;stroke-dasharray:0 350px;opacity:0}10%{opacity:1;transform:translate(0,1%)}20%{transform:translate(0,0)}40%,85%{stroke-dasharray:350px 0}95%{stroke-dasharray:0 350px}}@media (prefers-reduced-motion){path{animation:none!important;stroke-dasharray:unset!important}}path{stroke-dashoffset:1px;stroke-dasharray:350px 0;animation:grow 10s ease forwards infinite;transform-origin:center;stroke:#303030;animation-delay:0s}@media (prefers-color-scheme:dark){path{stroke:#fdfdfd}}</style>
</svg>